<svg xmlns='http://www.w3.org/2000/svg' font-family="Inter" font-size="0.45" font-weight="700" viewBox="0 0 800 958.7302" width="800"><defs><clipPath id="board-clip"><rect height="9" width="9" x="-0.5" y="-0.5"/></clipPath><marker id="linehead" markerHeight="4" markerWidth="4" refX="2" refY="2"><circle cx="2" cy="2" r="2"/></marker><marker id="arrowhead" markerHeight="5" markerWidth="7" orient="auto" refX="7" refY="2.5"><polygon points="0 0, 7 2.5, 0 5"/></marker></defs><rect fill="#cfa87e" height="100%" width="100%" x="0" y="0"/><g id="diagram" transform="scale(79.3651, 79.3651)"><g id="board-view" transform="translate(1.44, 1.44)"><g clip-path="url(#board-clip)" id="goban"><g id="lines" stroke="black" stroke-linecap="square" stroke-width="0.03"><line x1="0" x2="0" y1="0" y2="8"/><line x1="1" x2="1" y1="0" y2="8"/><line x1="2" x2="2" y1="0" y2="8"/><line x1="3" x2="3" y1="0" y2="8"/><line x1="4" x2="4" y1="0" y2="8"/><line x1="5" x2="5" y1="0" y2="8"/><line x1="6" x2="6" y1="0" y2="8"/><line x1="7" x2="7" y1="0" y2="8"/><line x1="8" x2="8" y1="0" y2="8"/><line x1="0" x2="8" y1="0" y2="0"/><line x1="0" x2="8" y1="1" y2="1"/><line x1="0" x2="8" y1="2" y2="2"/><line x1="0" x2="8" y1="3" y2="3"/><line x1="0" x2="8" y1="4" y2="4"/><line x1="0" x2="8" y1="5" y2="5"/><line x1="0" x2="8" y1="6" y2="6"/><line x1="0" x2="8" y1="7" y2="7"/><line x1="0" x2="8" y1="8" y2="8"/><g fill="black" id="hoshi" stroke="none"><circle cx="2" cy="2" r="0.09"/><circle cx="2" cy="6" r="0.09"/><circle cx="6" cy="2" r="0.09"/><circle cx="6" cy="6" r="0.09"/></g></g><g id="stones" stroke="none"><circle cx="0" cy="0" fill="white" r="0.48" stroke="black" stroke-width="0.03"/><circle cx="1" cy="0" fill="white" r="0.48" stroke="black" stroke-width="0.03"/><circle cx="3" cy="0" fill="white" r="0.48" stroke="black" stroke-width="0.03"/><circle cx="4" cy="0" fill="white" r="0.48" stroke="black" stroke-width="0.03"/><circle cx="5" cy="0" fill="white" r="0.48" stroke="black" stroke-width="0.03"/><circle cx="6" cy="0" fill="black" r="0.48" stroke="black" stroke-width="0.03"/><circle cx="7" cy="0" fill="white" r="0.48" stroke="black" stroke-width="0.03"/><circle cx="8" cy="0" fill="white" r="0.48" stroke="black" stroke-width="0.03"/><circle cx="0" cy="1" fill="black" r="0.48" stroke="black" stroke-width="0.03"/><circle cx="1" cy="1" fill="white" r="0.48" stroke="black" stroke-width="0.03"/><circle cx="2" cy="1" fill="white" r="0.48" stroke="black" stroke-width="0.03"/><circle cx="3" cy="1" fill="white" r="0.48" stroke="black" stroke-width="0.03"/><circle cx="4" cy="1" fill="black" r="0.48" stroke="black" stroke-width="0.03"/><circle cx="5" cy="1" fill="white" r="0.48" stroke="black" stroke-width="0.03"/><circle cx="6" cy="1" fill="black" r="0.48" stroke="black" stroke-width="0.03"/><circle cx="7" cy="1" fill="white" r="0.48" stroke="black" stroke-width="0.03"/><circle cx="8" cy="1" fill="black" r="0.48" stroke="black" stroke-width="0.03"/><circle cx="0" cy="2" fill="white" r="0.48" stroke="black" stroke-width="0.03"/><circle cx="1" cy="2" fill="black" r="0.48" stroke="black" stroke-width="0.03"/><circle cx="2" cy="2" fill="white" r="0.48" stroke="black" stroke-width="0.03"/><circle cx="3" cy="2" fill="black" r="0.48" stroke="black" stroke-width="0.03"/><circle cx="4" cy="2" fill="white" r="0.48" stroke="black" stroke-width="0.03"/><circle cx="5" cy="2" fill="white" r="0.48" stroke="black" stroke-width="0.03"/><circle cx="6" cy="2" fill="white" r="0.48" stroke="black" stroke-width="0.03"/><circle cx="7" cy="2" fill="black" r="0.48" stroke="black" stroke-width="0.03"/><circle cx="8" cy="2" fill="black" r="0.48" stroke="black" stroke-width="0.03"/><circle cx="0" cy="3" fill="black" r="0.48" stroke="black" stroke-width="0.03"/><circle cx="1" cy="3" fill="white" r="0.48" stroke="black" stroke-width="0.03"/><circle cx="2" cy="3" fill="black" r="0.48" stroke="black" stroke-width="0.03"/><circle cx="3" cy="3" fill="black" r="0.48" stroke="black" stroke-width="0.03"/><circle cx="4" cy="3" fill="black" r="0.48" stroke="black" stroke-width="0.03"/><circle cx="5" cy="3" fill="black" r="0.48" stroke="black" stroke-width="0.03"/><circle cx="6" cy="3" fill="black" r="0.48" stroke="black" stroke-width="0.03"/><circle cx="7" cy="3" fill="black" r="0.48" stroke="black" stroke-width="0.03"/><circle cx="0" cy="4" fill="white" r="0.48" stroke="black" stroke-width="0.03"/><circle cx="1" cy="4" fill="black" r="0.48" stroke="black" stroke-width="0.03"/><circle cx="2" cy="4" fill="white" r="0.48" stroke="black" stroke-width="0.03"/><circle cx="3" cy="4" fill="black" r="0.48" stroke="black" stroke-width="0.03"/><circle cx="4" cy="4" fill="black" r="0.48" stroke="black" stroke-width="0.03"/><circle cx="5" cy="4" fill="black" r="0.48" stroke="black" stroke-width="0.03"/><circle cx="6" cy="4" fill="white" r="0.48" stroke="black" stroke-width="0.03"/><circle cx="7" cy="4" fill="black" r="0.48" stroke="black" stroke-width="0.03"/><circle cx="8" cy="4" fill="black" r="0.48" stroke="black" stroke-width="0.03"/><circle cx="0" cy="5" fill="black" r="0.48" stroke="black" stroke-width="0.03"/><circle cx="1" cy="5" fill="white" r="0.48" stroke="black" stroke-width="0.03"/><circle cx="2" cy="5" fill="white" r="0.48" stroke="black" stroke-width="0.03"/><circle cx="3" cy="5" fill="black" r="0.48" stroke="black" stroke-width="0.03"/><circle cx="4" cy="5" fill="black" r="0.48" stroke="black" stroke-width="0.03"/><circle cx="6" cy="5" fill="black" r="0.48" stroke="black" stroke-width="0.03"/><circle cx="8" cy="5" fill="black" r="0.48" stroke="black" stroke-width="0.03"/><circle cx="0" cy="6" fill="white" r="0.48" stroke="black" stroke-width="0.03"/><circle cx="1" cy="6" fill="white" r="0.48" stroke="black" stroke-width="0.03"/><circle cx="2" cy="6" fill="white" r="0.48" stroke="black" stroke-width="0.03"/><circle cx="3" cy="6" fill="black" r="0.48" stroke="black" stroke-width="0.03"/><circle cx="4" cy="6" fill="white" r="0.48" stroke="black" stroke-width="0.03"/><circle cx="5" cy="6" fill="black" r="0.48" stroke="black" stroke-width="0.03"/><circle cx="6" cy="6" fill="white" r="0.48" stroke="black" stroke-width="0.03"/><circle cx="7" cy="6" fill="black" r="0.48" stroke="black" stroke-width="0.03"/><circle cx="0" cy="7" fill="white" r="0.48" stroke="black" stroke-width="0.03"/><circle cx="1" cy="7" fill="black" r="0.48" stroke="black" stroke-width="0.03"/><circle cx="2" cy="7" fill="white" r="0.48" stroke="black" stroke-width="0.03"/><circle cx="3" cy="7" fill="white" r="0.48" stroke="black" stroke-width="0.03"/><circle cx="4" cy="7" fill="white" r="0.48" stroke="black" stroke-width="0.03"/><circle cx="5" cy="7" fill="black" r="0.48" stroke="black" stroke-width="0.03"/><circle cx="6" cy="7" fill="black" r="0.48" stroke="black" stroke-width="0.03"/><circle cx="8" cy="7" fill="black" r="0.48" stroke="black" stroke-width="0.03"/><circle cx="1" cy="8" fill="white" r="0.48" stroke="black" stroke-width="0.03"/><circle cx="2" cy="8" fill="white" r="0.48" stroke="black" stroke-width="0.03"/><circle cx="3" cy="8" fill="black" r="0.48" stroke="black" stroke-width="0.03"/><circle cx="4" cy="8" fill="black" r="0.48" stroke="black" stroke-width="0.03"/><circle cx="5" cy="8" fill="black" r="0.48" stroke="black" stroke-width="0.03"/><circle cx="7" cy="8" fill="black" r="0.48" stroke="black" stroke-width="0.03"/></g><g id="move-numbers" text-anchor="middle"><g><text dy="0.35em" fill="white" x="4" y="4">1</text></g><g><text dy="0.35em" fill="black" x="6" y="4">2</text></g><g><text dy="0.35em" fill="white" x="5" y="6">3</text></g><g><text dy="0.35em" fill="black" x="4" y="2">4</text></g><g><text dy="0.35em" fill="white" x="5" y="3">5</text></g><g><text dy="0.35em" fill="black" x="5" y="2">6</text></g><g><text dy="0.35em" fill="white" x="6" y="3">7</text></g><g><text dy="0.35em" fill="black" x="6" y="2">8</text></g><g><text dy="0.35em" fill="white" x="7" y="3">9</text></g><g><text dy="0.35em" fill="black" x="2" y="4">10</text></g><g><text dy="0.35em" fill="white" x="3" y="3">11</text></g><g><text dy="0.35em" fill="black" x="2" y="2">12</text></g><g><text dy="0.35em" fill="white" x="2" y="3">13</text></g><g><text dy="0.35em" fill="black" x="1" y="3">14</text></g><g><text dy="0.35em" fill="white" x="3" y="2">15</text></g><g><text dy="0.35em" fill="black" x="3" y="1">16</text></g><g><text dy="0.35em" fill="white" x="1" y="2">17</text></g><g><text dy="0.35em" fill="black" x="2" y="1">18</text></g><g><text dy="0.35em" fill="white" x="1" y="4">19</text></g><g><text dy="0.35em" fill="black" x="6" y="6">20</text></g><g><text dy="0.35em" fill="white" x="6" y="7">21</text></g><g><text dy="0.35em" fill="black" x="4" y="6">22</text></g><g><text dy="0.35em" fill="white" x="5" y="7">23</text></g><g><text dy="0.35em" fill="black" x="1" y="5">24</text></g><g><text dy="0.35em" fill="white" x="0" y="3">25</text></g><g><text dy="0.35em" fill="black" x="2" y="5">26</text></g><g><text dy="0.35em" fill="black" x="4" y="7">28</text></g><g><text dy="0.35em" fill="white" x="7" y="2">29</text></g><g><text dy="0.35em" fill="black" x="7" y="1">30</text></g><g><text dy="0.35em" fill="white" x="6" y="1">31</text></g><g><text dy="0.35em" fill="black" x="5" y="1">32</text></g><g><text dy="0.35em" fill="white" x="6" y="0">33</text></g><g><text dy="0.35em" fill="black" x="7" y="0">34</text></g><g><text dy="0.35em" fill="white" x="4" y="5">35</text></g><g><text dy="0.35em" fill="black" x="2" y="7">36</text></g><g><text dy="0.35em" fill="white" x="3" y="6">37</text></g><g><text dy="0.35em" fill="black" x="3" y="7">38</text></g><g><text dy="0.35em" fill="white" x="3" y="5">39</text></g><g><text dy="0.35em" fill="black" x="2" y="6">40</text></g><g><text dy="0.35em" fill="white" x="0" y="5">41</text></g><g><text dy="0.35em" fill="black" x="0" y="6">42</text></g><g><text dy="0.35em" fill="white" x="1" y="7">43</text></g><g><text dy="0.35em" fill="black" x="1" y="8">44</text></g><g><text dy="0.35em" fill="white" x="4" y="8">45</text></g><g><text dy="0.35em" fill="black" x="1" y="1">46</text></g><g><text dy="0.35em" fill="white" x="3" y="4">47</text></g><g><text dy="0.35em" fill="black" x="1" y="6">48</text></g><g><text dy="0.35em" fill="white" x="0" y="1">49</text></g><g><text dy="0.35em" fill="black" x="0" y="7">50</text></g><g><text dy="0.35em" fill="white" x="8" y="1">51</text></g><g><text dy="0.35em" fill="black" x="5" y="0">52</text></g><g><text dy="0.35em" fill="white" x="3" y="8">53</text></g><g><text dy="0.35em" fill="black" x="2" y="8">54</text></g><g><text dy="0.35em" fill="white" x="5" y="8">55</text></g><g><text dy="0.35em" fill="black" x="1" y="0">56</text></g><g><text dy="0.35em" fill="white" x="8" y="2">57</text></g><g><text dy="0.35em" fill="black" x="0" y="4">58</text></g><g><text dy="0.35em" fill="white" x="6" y="5">59</text></g><g><text dy="0.35em" fill="black" x="0" y="0">60</text></g><g><text dy="0.35em" fill="black" x="8" y="0">62</text></g><g><text dy="0.35em" fill="black" x="0" y="2">64</text></g><g><text dy="0.35em" fill="white" x="4" y="3">65</text></g><g><text dy="0.35em" fill="white" x="7" y="4">67</text></g><g><text dy="0.35em" fill="white" x="8" y="7">68</text></g><g><text dy="0.35em" fill="white" x="8" y="4">69</text></g><g><text dy="0.35em" fill="white" x="7" y="8">70</text></g><g><text dy="0.35em" fill="white" x="8" y="5">71</text></g><g><text dy="0.35em" fill="white" x="5" y="4">74</text></g><g><text dy="0.35em" fill="black" x="3" y="0">75</text></g><g><text dy="0.35em" fill="white" x="7" y="6">76</text></g><g><text dy="0.35em" fill="white" x="4" y="1">77</text></g><g><text dy="0.35em" fill="black" x="4" y="0">78</text></g></g><g id="markup-marks"/><g id="markup-triangles"/><g id="markup-circles"/><g id="markup-squares"/><g id="markup-selected"/><g id="markup-dimmed"/><g id="markup-labels"/><g id="markup-lines" marker-end="url(#linehead)" marker-start="url(#linehead)" stroke="black" stroke-width="0.03"/><g id="markup-arrows" marker-end="url(#arrowhead)" stroke="black" stroke-width="0.03"/></g></g><g fill="#6e5840" id="board-labels" transform="translate(0.8, 0.8)"><g text-anchor="middle"><text x="0.64" y="0">A</text><text x="1.64" y="0">B</text><text x="2.64" y="0">C</text><text x="3.64" y="0">D</text><text x="4.64" y="0">E</text><text x="5.64" y="0">F</text><text x="6.64" y="0">G</text><text x="7.64" y="0">H</text><text x="8.64" y="0">J</text></g><g text-anchor="end"><text dy="0.35em" x="0" y="8.64">1</text><text dy="0.35em" x="0" y="7.64">2</text><text dy="0.35em" x="0" y="6.64">3</text><text dy="0.35em" x="0" y="5.64">4</text><text dy="0.35em" x="0" y="4.64">5</text><text dy="0.35em" x="0" y="3.64">6</text><text dy="0.35em" x="0" y="2.64">7</text><text dy="0.35em" x="0" y="1.64">8</text><text dy="0.35em" x="0" y="0.64">9</text></g></g><g id="repeated-stones"><rect fill="white" height="1.36" stroke="black" stroke-width="0.03" width="8" x="1.44" y="10.4"/><text fill="black" font-size="0.4" y="11.05"><tspan x="1.795">27→14</tspan><tspan x="4.225">61→41</tspan><tspan x="6.655">63→58</tspan><tspan dy="0.4" x="1.795">66→49</tspan><tspan x="4.225">72→31</tspan><tspan x="6.655">73→33</tspan></text></g></g></svg>